PathFileType	4	(X/Y/Z)	 0.06m3min.trc
DataRate	CameraRate	NumFrames	NumMarkers	Units	OrigDataRate	OrigDataStartFrame	OrigNumFrames
200	200	8	43	m	200	626	1000
Frame#	Time	C7			LSH			RSH			MAN			RASI			LASI			HIPR			HIPL			RPSI			LPSI			COX			RTHI1			RTHI2			RTHI3			RTHI4			RLKN			RMKN			RSHA1			RSHA2			RSHA3			RSHA4			RLMAL			RMMAL			RHEEL			RMET5			RMET1			RTOE			LTHI1			LTHI2			LTHI3			LTHI4			LLKN			LMKN			LSHA1			LSHA2			LSHA3			LSHA4			LLMAL			LMMAL			LHEEL			LMET5			LMET1			LTOE			
		X1	Y1	Z1	X2	Y2	Z2	X3	Y3	Z3	X4	Y4	Z4	X5	Y5	Z5	X6	Y6	Z6	X7	Y7	Z7	X8	Y8	Z8	X9	Y9	Z9	X10	Y10	Z10	X11	Y11	Z11	X12	Y12	Z12	X13	Y13	Z13	X14	Y14	Z14	X15	Y15	Z15	X16	Y16	Z16	X17	Y17	Z17	X18	Y18	Z18	X19	Y19	Z19	X20	Y20	Z20	X21	Y21	Z21	X22	Y22	Z22	X23	Y23	Z23	X24	Y24	Z24	X25	Y25	Z25	X26	Y26	Z26	X27	Y27	Z27	X28	Y28	Z28	X29	Y29	Z29	X30	Y30	Z30	X31	Y31	Z31	X32	Y32	Z32	X33	Y33	Z33	X34	Y34	Z34	X35	Y35	Z35	X36	Y36	Z36	X37	Y37	Z37	X38	Y38	Z38	X39	Y39	Z39	X40	Y40	Z40	X41	Y41	Z41	X42	Y42	Z42	X43	Y43	Z43	
626	3.1300	-0.284394	1.378880	-0.521319	-0.202524	1.363049	-0.671638	-0.227124	1.354870	-0.363782	-0.165819	1.322286	-0.513479	-0.158332	0.896881	-0.406629	-0.168251	0.892179	-0.641168	-0.200219	0.966199	-0.382355	-0.198747	0.960839	-0.658965	-0.326413	0.944526	-0.482321	-0.328101	0.944038	-0.553269	-0.323448	0.950386	-0.516627	-0.273871	0.717699	-0.344165	-0.260464	0.659453	-0.338780	-0.197020	0.670593	-0.332104	-0.202155	0.732002	-0.336396	-0.236374	0.461034	-0.352857	-0.221245	0.446938	-0.473145	-0.328958	0.294481	-0.350027	-0.340138	0.253339	-0.360808	-0.280053	0.241375	-0.349405	-0.277514	0.281311	-0.340315	-0.338597	0.118097	-0.370052	-0.308188	0.120245	-0.444656	-0.386558	0.110524	-0.414490	-0.253575	0.035251	-0.341745	-0.209262	0.041456	-0.408311	-0.189321	0.033965	-0.403666	-0.284628	0.734151	-0.698093	-0.267072	0.675744	-0.707873	-0.203233	0.689205	-0.710432	-0.213288	0.747743	-0.702034	-0.265518	0.459954	-0.700618	-0.230258	0.451728	-0.583996	-0.362980	0.304152	-0.698205	-0.369114	0.265318	-0.692412	-0.311534	0.255729	-0.709652	-0.310507	0.297754	-0.718176	-0.360616	0.126637	-0.691417	-0.337010	0.128619	-0.615928	-0.412705	0.120335	-0.643231	-0.285107	0.037828	-0.710659	-0.237971	0.042016	-0.643732	-0.222156	0.036047	-0.647285	
627	3.1350	-0.284321	1.374294	-0.521418	-0.202221	1.358615	-0.671666	-0.226924	1.350478	-0.363789	-0.165517	1.317631	-0.513499	-0.158564	0.892322	-0.406614	-0.168588	0.887457	-0.641331	-0.200589	0.961620	-0.382264	-0.199255	0.955956	-0.659242	-0.326853	0.939498	-0.482308	-0.328668	0.939051	-0.553300	-0.324015	0.945414	-0.516644	-0.273638	0.712842	-0.344010	-0.260057	0.654650	-0.338552	-0.196633	0.666006	-0.331981	-0.201975	0.727389	-0.336327	-0.235063	0.456231	-0.352756	-0.220385	0.442185	-0.472802	-0.329210	0.290608	-0.349864	-0.340915	0.249584	-0.360755	-0.280964	0.236849	-0.349688	-0.277923	0.276756	-0.340403	-0.340908	0.114864	-0.370474	-0.311130	0.116766	-0.445202	-0.388916	0.106696	-0.414611	-0.254432	0.034553	-0.341258	-0.209883	0.041472	-0.407750	-0.189614	0.033842	-0.403279	-0.284877	0.729270	-0.698039	-0.267273	0.670896	-0.708063	-0.203450	0.684482	-0.710789	-0.213570	0.742976	-0.702173	-0.264489	0.455058	-0.701448	-0.229805	0.446676	-0.584846	-0.363561	0.300073	-0.699017	-0.370137	0.261368	-0.693084	-0.312529	0.251121	-0.709911	-0.311078	0.293057	-0.718715	-0.363107	0.123164	-0.691094	-0.340101	0.125399	-0.615343	-0.415404	0.116667	-0.643200	-0.286121	0.037151	-0.710893	-0.238481	0.041871	-0.644009	-0.222684	0.035908	-0.647393	
628	3.1400	-0.284261	1.369633	-0.521528	-0.201897	1.354109	-0.671754	-0.226769	1.346035	-0.363742	-0.165156	1.312891	-0.513517	-0.158771	0.887619	-0.406559	-0.168897	0.882632	-0.641524	-0.200939	0.956887	-0.382086	-0.199748	0.950957	-0.659578	-0.327211	0.934316	-0.482278	-0.329139	0.933902	-0.553320	-0.324536	0.940329	-0.516660	-0.273462	0.707832	-0.343828	-0.259694	0.649703	-0.338280	-0.196294	0.661286	-0.331780	-0.201861	0.722645	-0.336197	-0.233734	0.451288	-0.352662	-0.219486	0.437221	-0.472330	-0.329580	0.286751	-0.349676	-0.341822	0.245834	-0.360639	-0.281988	0.232354	-0.350003	-0.278463	0.272233	-0.340534	-0.343222	0.111690	-0.370850	-0.314104	0.113428	-0.445774	-0.391291	0.102932	-0.414621	-0.255378	0.033772	-0.341050	-0.210743	0.041514	-0.407693	-0.190141	0.033698	-0.403322	-0.285124	0.724231	-0.698011	-0.267497	0.665901	-0.708314	-0.203695	0.679594	-0.711299	-0.213853	0.738039	-0.702430	-0.263408	0.450007	-0.702338	-0.229373	0.441399	-0.585831	-0.364193	0.296050	-0.699822	-0.371254	0.257493	-0.693827	-0.313572	0.246559	-0.710104	-0.311671	0.288405	-0.719162	-0.365476	0.119740	-0.690769	-0.343242	0.122343	-0.614756	-0.418055	0.113039	-0.643256	-0.287254	0.036431	-0.711101	-0.239170	0.041830	-0.643963	-0.223298	0.035819	-0.647224	
629	3.1450	-0.284208	1.364975	-0.521648	-0.201598	1.349571	-0.671923	-0.226672	1.341582	-0.363620	-0.164730	1.308120	-0.513531	-0.158950	0.882806	-0.406459	-0.169184	0.877741	-0.641756	-0.201265	0.952024	-0.381817	-0.200219	0.945879	-0.659986	-0.327496	0.929039	-0.482243	-0.329512	0.928621	-0.553327	-0.324999	0.935154	-0.516663	-0.273354	0.702733	-0.343607	-0.259368	0.644668	-0.337954	-0.196006	0.656503	-0.331495	-0.201815	0.717835	-0.336001	-0.232447	0.446320	-0.352567	-0.218541	0.432097	-0.471722	-0.329971	0.282935	-0.349436	-0.342713	0.242114	-0.360440	-0.282957	0.227986	-0.350322	-0.278991	0.267820	-0.340700	-0.345329	0.108531	-0.371131	-0.316903	0.110196	-0.446312	-0.393560	0.099200	-0.414521	-0.256460	0.033047	-0.340835	-0.211498	0.041652	-0.407713	-0.190613	0.033602	-0.403172	-0.285377	0.719083	-0.698036	-0.267752	0.660803	-0.708647	-0.203966	0.674583	-0.711959	-0.214143	0.732984	-0.702820	-0.262300	0.444908	-0.703270	-0.228917	0.435954	-0.586952	-0.364763	0.292161	-0.700613	-0.372326	0.253768	-0.694660	-0.314525	0.242153	-0.710245	-0.312176	0.283914	-0.719522	-0.367562	0.116387	-0.690477	-0.346206	0.119414	-0.614207	-0.420530	0.109451	-0.643382	-0.288276	0.035924	-0.711370	-0.239703	0.041775	-0.643801	-0.223796	0.035750	-0.647122	
630	3.1500	-0.284144	1.360409	-0.521784	-0.201362	1.345039	-0.672186	-0.226638	1.337166	-0.363409	-0.164249	1.303371	-0.513541	-0.159113	0.877923	-0.406325	-0.169450	0.872828	-0.642029	-0.201559	0.947064	-0.381456	-0.200660	0.940769	-0.660469	-0.327725	0.923731	-0.482219	-0.329797	0.923271	-0.553320	-0.325404	0.929934	-0.516659	-0.273320	0.697638	-0.343329	-0.259086	0.639639	-0.337579	-0.195766	0.651763	-0.331149	-0.201849	0.713065	-0.335737	-0.231276	0.441472	-0.352471	-0.217546	0.426884	-0.470992	-0.330287	0.279203	-0.349115	-0.343462	0.238472	-0.360130	-0.283748	0.223811	-0.350616	-0.279377	0.263586	-0.340900	-0.347080	0.105339	-0.371301	-0.319368	0.107028	-0.446770	-0.395650	0.095485	-0.414351	-0.257203	0.032494	-0.340431	-0.212042	0.041735	-0.407608	-0.190893	0.033536	-0.403033	-0.285650	0.713884	-0.698150	-0.268043	0.655660	-0.709088	-0.204278	0.669517	-0.712766	-0.214457	0.727864	-0.703345	-0.261216	0.439892	-0.704210	-0.228390	0.430403	-0.588190	-0.365166	0.288446	-0.701429	-0.373199	0.250188	-0.695554	-0.315254	0.237977	-0.710370	-0.312482	0.279662	-0.719811	-0.369298	0.113127	-0.690239	-0.348843	0.116572	-0.613736	-0.422770	0.105925	-0.643557	-0.288945	0.035456	-0.711653	-0.240073	0.041755	-0.643795	-0.224077	0.035733	-0.647092	
631	3.1550	-0.284064	1.356028	-0.521929	-0.201195	1.340557	-0.672553	-0.226656	1.332832	-0.363103	-0.163732	1.298718	-0.513548	-0.159263	0.873028	-0.406167	-0.169704	0.867940	-0.642340	-0.201817	0.942044	-0.381004	-0.201068	0.935674	-0.661026	-0.327929	0.918465	-0.482209	-0.330015	0.917915	-0.553304	-0.325749	0.924715	-0.516651	-0.273372	0.692678	-0.342986	-0.258847	0.634747	-0.337172	-0.195588	0.647195	-0.330770	-0.201974	0.708464	-0.335418	-0.230298	0.436899	-0.352365	-0.216527	0.421703	-0.470171	-0.330448	0.275580	-0.348706	-0.344005	0.234948	-0.359680	-0.284256	0.219887	-0.350862	-0.279521	0.259551	-0.341148	-0.348483	0.102163	-0.371344	-0.321444	0.103933	-0.447149	-0.397520	0.091837	-0.414109	-0.257566	0.031938	-0.339937	-0.212381	0.041766	-0.407535	-0.191024	0.033492	-0.402879	-0.285953	0.708720	-0.698383	-0.268384	0.650541	-0.709628	-0.204635	0.664463	-0.713679	-0.214807	0.722768	-0.704000	-0.260213	0.435111	-0.705126	-0.227751	0.424858	-0.589521	-0.365336	0.284939	-0.702310	-0.373782	0.246778	-0.696518	-0.315683	0.234086	-0.710502	-0.312529	0.275712	-0.720068	-0.370719	0.109983	-0.690037	-0.351082	0.113813	-0.613355	-0.424770	0.102497	-0.643777	-0.289383	0.035018	-0.712008	-0.240301	0.041734	-0.643738	-0.224205	0.035704	-0.647016	
632	3.1600	-0.283970	1.351922	-0.522078	-0.201093	1.336182	-0.673027	-0.226725	1.328628	-0.362709	-0.163200	1.294228	-0.513553	-0.159407	0.868187	-0.405997	-0.169947	0.863139	-0.642685	-0.202038	0.937015	-0.380469	-0.201438	0.930641	-0.661653	-0.328140	0.913331	-0.482210	-0.330199	0.912646	-0.553280	-0.326057	0.919570	-0.516640	-0.273520	0.688020	-0.342582	-0.258683	0.630161	-0.336746	-0.195488	0.642941	-0.330390	-0.202194	0.704175	-0.335067	-0.229574	0.432734	-0.352256	-0.215539	0.416727	-0.469323	-0.330462	0.272138	-0.348231	-0.344347	0.231601	-0.359112	-0.284505	0.216252	-0.351055	-0.279473	0.255787	-0.341395	-0.349560	0.099047	-0.371307	-0.323150	0.100988	-0.447446	-0.399201	0.088323	-0.413789	-0.257806	0.031456	-0.339431	-0.212627	0.041810	-0.407430	-0.191081	0.033461	-0.402720	-0.286310	0.703705	-0.698756	-0.268764	0.645563	-0.710236	-0.205038	0.659540	-0.714628	-0.215212	0.717816	-0.704763	-0.259353	0.430713	-0.705974	-0.226957	0.419474	-0.590900	-0.365280	0.281659	-0.703242	-0.374072	0.243547	-0.697508	-0.315823	0.230496	-0.710645	-0.312329	0.272070	-0.720312	-0.371890	0.107009	-0.689857	-0.352939	0.111165	-0.613038	-0.426541	0.099238	-0.644012	-0.289739	0.034665	-0.712364	-0.240498	0.041723	-0.643705	-0.224306	0.035672	-0.646964	
633	3.1650	-0.283858	1.348151	-0.522234	-0.201046	1.331977	-0.673593	-0.226842	1.324615	-0.362236	-0.162680	1.289980	-0.513557	-0.159546	0.863472	-0.405829	-0.170180	0.858498	-0.643051	-0.202225	0.932047	-0.379859	-0.201775	0.925732	-0.662344	-0.328388	0.908421	-0.482214	-0.330393	0.907582	-0.553243	-0.326359	0.914623	-0.516618	-0.273754	0.683825	-0.342140	-0.258609	0.626022	-0.336353	-0.195483	0.639138	-0.330052	-0.202494	0.700331	-0.334708	-0.229158	0.429073	-0.352149	-0.214672	0.412161	-0.468546	-0.330382	0.268965	-0.347710	-0.344557	0.228500	-0.358499	-0.284593	0.212947	-0.351223	-0.279295	0.252346	-0.341649	-0.350394	0.096077	-0.371217	-0.324633	0.098223	-0.447629	-0.400697	0.085026	-0.413441	-0.258039	0.031045	-0.339019	-0.212877	0.041888	-0.407327	-0.191150	0.033453	-0.402622	-0.286720	0.698995	-0.699256	-0.269172	0.640870	-0.710861	-0.205462	0.654921	-0.715546	-0.215669	0.713175	-0.705583	-0.258670	0.426812	-0.706715	-0.225990	0.414443	-0.592266	-0.365064	0.278605	-0.704168	-0.374147	0.240524	-0.698463	-0.315762	0.227181	-0.710767	-0.311959	0.268711	-0.720529	-0.372896	0.104260	-0.689679	-0.354479	0.108669	-0.612759	-0.428083	0.096214	-0.644191	-0.290069	0.034401	-0.712667	-0.240716	0.041725	-0.643690	-0.224444	0.035643	-0.646946	
